# xmcd CD database file
#
# Track frame offsets:
#	150
#	29323
#	56012
#	82227
#	104894
#	134866
#	167072
#	188299
#	210095
#
# Disc length: 2991 seconds
#
# Revision: 0
# Processed by: cddbd v1.5PL3 Copyright (c) Steve Scherf et al.
# Submitted via: CDex 1.51
#
DISCID=7d0bad09
DTITLE=Lewellyn - Mysts of Avalon 
DYEAR=2004
DGENRE=New Age
TTITLE0=Silver Moon Woods
TTITLE1=Merlyn and the Crossing
TTITLE2=Through the Mysts
TTITLE3=The Summerlands
TTITLE4=Queen of the Moon
TTITLE5=The Dragon's Breath
TTITLE6=The Calling
TTITLE7=The Crystal Castle
TTITLE8=Seeking the Candle
EXTD=YEAR: 2004
EXTT0=
EXTT1=
EXTT2=
EXTT3=
EXTT4=
EXTT5=
EXTT6=
EXTT7=
EXTT8=
PLAYORDER=
